<?xml version="1.0" encoding="UTF-8" standalone="no"?>
<svg
   xmlns="http://www.w3.org/2000/svg"
   height="85.535004"
   width="74.459221"
   viewBox="0 0 74.459222 85.534999">  
    <defs id="defs4">
        <style id="style2">.cls-1{fill:#4e66f8;}</style>
    </defs>
  <g
     transform="translate(-43.104959,-0.01)"
     >
    <path
       d="m 117.47,44.62 c -0.36,-0.77 -1.56,-1.26 -2.48,-1.63 a 5.94,5.94 0 0 0 -2.07,-0.05 h -8.53 v -2.5 c 0,-10.54 0,-21.09 0,-31.65 0,-5.55 -3.22,-8.78 -8.75,-8.78 H 65.32 c -5.65,0 -8.88,3.24 -8.88,8.86 q 0,15.83 0,31.65 v 2.43 c -3.53,0 -6.83,0 -10.12,0 -1.28,0 -2.41,0.21 -3,1.53 -0.59,1.32 0.13,2.32 1,3.22 1.76,1.91 3.54,3.83 5.31,5.72 q 14,15.09 28,30.19 c 2.41,2.59 3.2,2.57 5.68,0 l 0.66,-0.69 23.6,-25.46 c 3.12,-3.35 6.26,-6.67 9.29,-10.1 a 3.13,3.13 0 0 0 0.61,-2.74 z m -33.29,0.52 c -0.35,0.06 -0.71,0.2 -1.09,0.29 -0.41,2 0.58,4.76 -2.63,5.14 -1.68,0.19 -2.24,-0.94 -2.74,-5.33 -0.81,0 -1.68,0.06 -2.54,0 -1.53,-0.11 -2.58,-0.92 -2.58,-2.48 a 2.38,2.38 0 0 1 2.57,-2.51 c 2.4,-0.08 4.81,0 7.24,0 2.22,0 3.52,-1.1 3.52,-2.86 0,-1.76 -1.33,-2.81 -3.56,-2.85 -1.66,0 -3.31,0.05 -5,-0.06 A 7.79,7.79 0 0 1 76.09,19 c 1.53,-0.32 1.89,-0.93 1.85,-2.37 -0.06,-2.05 0.93,-3.21 2.44,-3.24 1.51,-0.03 2.52,1.21 2.62,3.36 0,0.57 0,1.14 0,2 1.07,0 1.89,0 2.7,0 a 2.41,2.41 0 0 1 2.57,2.5 2.3,2.3 0 0 1 -2.56,2.46 c -2.41,0 -4.82,0 -7.24,0 -2.21,0 -3.51,1.15 -3.49,2.91 0.02,1.76 1.31,2.8 3.58,2.81 1.38,0 2.79,0 4.17,0 4.64,0.1 7.86,3 8.27,7.33 0.33,4.05 -2.42,7.45 -6.82,8.38 z"
       class="cls-1" />
  </g>
</svg>
