<?xml version="1.0" encoding="UTF-8" standalone="no"?>
<svg
   xmlns="http://www.w3.org/2000/svg"
   height="84.872055"
   width="70.699997"
   viewBox="0 0 70.699998 84.872052">
    <defs id="defs4">
        <style id="style2">.cls-1{fill:#4e66f8;}</style>
    </defs>
  <g >
    <path
       d="m 61.05,25.25 5.08,-5.08 v 0 l -5,-5 v 0 l -5.44,5.44 A 35,35 0 0 0 38.88,14.32 V 7.07 H 46 V 0 H 24.74 v 7.07 h 7.07 v 7.25 A 35.07,35.07 0 0 0 15,20.61 L 9.57,15.17 v 0 l -5,5 v 0 l 5.08,5.08 a 35.35,35.35 0 1 0 51.4,0 z M 35.35,77.77 A 28.28,28.28 0 1 1 63.63,49.49 28.28,28.28 0 0 1 35.35,77.77 Z"
       class="cls-1" />
    <path     
       d="M 35.35,28.28 V 49.49 H 14.14 A 21.21,21.21 0 1 0 35.35,28.28 Z"
       class="cls-1" />
  </g>
</svg>
