<?xml version="1.0" encoding="UTF-8" standalone="no"?>
<svg
   xmlns="http://www.w3.org/2000/svg"
   height="87.610001"
   width="65.720001"
   viewBox="0 0 65.720003 87.610004">
  <defs
     id="defs4">
    <style
       id="style2">.cls-1{fill:#4e66f8;}</style>
  </defs>    
  <path
     id="path20"
     d="m 63.9,32.85 h -5.49 v -7.3 a 25.55,25.55 0 0 0 -51.1,0 v 7.3 H 1.83 A 1.83,1.83 0 0 0 0,34.67 v 45.64 a 7.32,7.32 0 0 0 7.32,7.3 h 51.1 a 7.3,7.3 0 0 0 7.3,-7.3 V 34.67 A 1.82,1.82 0 0 0 63.9,32.85 Z M 38.32,71 A 1.8,1.8 0 0 1 36.5,73 H 29.21 A 1.82,1.82 0 0 1 27.86,72.41 1.77,1.77 0 0 1 27.4,71 l 1.15,-10.35 a 7.24,7.24 0 0 1 -3,-5.89 7.31,7.31 0 0 1 14.61,0 7.22,7.22 0 0 1 -3,5.89 z M 47.47,32.87 H 18.26 v -7.3 a 14.61,14.61 0 0 1 29.21,0 z"
     class="cls-1" />
</svg>
