<?xml version="1.0" encoding="UTF-8" standalone="no"?>
<svg
   xmlns:dc="http://purl.org/dc/elements/1.1/"
   xmlns:cc="http://creativecommons.org/ns#"
   xmlns:rdf="http://www.w3.org/1999/02/22-rdf-syntax-ns#"
   xmlns:svg="http://www.w3.org/2000/svg"
   xmlns="http://www.w3.org/2000/svg"
   height="91.972046"
   width="74.39283"
   version="1.1"
   viewBox="0 0 74.392828 91.972047"
   data-name="Layer 1"
   id="Layer_1">
  <metadata
     id="metadata34">
    <rdf:RDF>
      <cc:Work
         rdf:about="">
        <dc:format>image/svg+xml</dc:format>
        <dc:type
           rdf:resource="http://purl.org/dc/dcmitype/StillImage" />
        <dc:title>simple_icon</dc:title>
      </cc:Work>
    </rdf:RDF>
  </metadata>
  <title
     id="title6">simple_icon</title>
  <defs
     id="defs4">
    <style
       id="style2">.cls-1{fill:#4e66f8;}</style>
  </defs>  
  <g
     transform="translate(-16.620958,-0.02795406)"
     id="OQy6al">
    <path
       id="path20"
       d="m 49,39.56 c 11,-6.17 21.42,-12.12 32,-18 a 8.45,8.45 0 0 1 4,-1.05 6.14,6.14 0 0 1 5.83,4.86 6.32,6.32 0 0 1 -3,7 c -4.08,2.34 -8.19,4.63 -12.29,6.94 -0.37,0.21 -0.73,0.44 -1.1,0.67 3.39,3.63 3.76,5.5 1.93,9.45 3.93,3.7 4.39,5.84 2.4,9.56 A 26.67,26.67 0 0 1 80,63.81 5.61,5.61 0 0 1 77,69.33 C 70.75,72.93 64.46,76.44 58.17,80 a 4.65,4.65 0 0 1 -1.24,0.42 c -3,0.7 -5.91,1.35 -8.85,2.09 A 1.08,1.08 0 0 1 46.62,81.9 C 41.75,73.23 36.85,64.59 32,55.9 A 3.21,3.21 0 0 1 31.75,54 c 1,-7 2.22,-13.89 3,-20.87 0.51,-4.75 0.35,-9.58 0.48,-14.37 0.08,-2.64 1.65,-4.2 3.9,-5.12 a 5.13,5.13 0 0 1 6.17,1.23 9.07,9.07 0 0 1 2.16,4 62,62 0 0 1 1,9 c 0.13,2.45 -0.22,4.92 -0.18,7.38 A 31.74,31.74 0 0 0 49,39.56 Z"
       class="cls-1" />
    <path
       id="path22"
       d="m 32.79,92 a 9.62,9.62 0 0 1 -1,-1.22 Q 25.91,80.33 20,69.87 c -1,-1.8 -2,-3.61 -3.06,-5.39 -0.48,-0.83 -0.49,-1.4 0.47,-1.92 q 5.25,-2.89 10.45,-5.9 c 0.93,-0.54 1.41,-0.29 1.88,0.56 q 7.47,13.27 15,26.54 c 0.51,0.9 0.34,1.39 -0.55,1.88 -3.47,1.91 -6.9,3.88 -10.34,5.82 -0.28,0.15 -0.56,0.28 -1.06,0.54 z"
       class="cls-1" />
    <path
       id="path24"
       d="m 62.66,18.45 c -1.66,0 -2.38,-1.09 -2,-2.46 1,-4 1.93,-8 2.89,-12 0.2,-0.81 0.38,-1.63 0.61,-2.43 a 1.77,1.77 0 0 1 2.18,-1.48 1.83,1.83 0 0 1 1.15,2.45 c -1,4.09 -2,8.18 -3,12.27 a 9.94,9.94 0 0 1 -0.61,2.28 5.9,5.9 0 0 1 -1.22,1.37 z"
       class="cls-1" />
    <path
       id="path26"
       d="m 69.93,22.46 c -1.65,0 -2.46,-1.27 -2,-2.43 a 3.92,3.92 0 0 1 0.59,-0.87 Q 73,13.6 77.4,8.05 c 0.95,-1.19 1.9,-1.41 2.8,-0.72 0.9,0.69 0.89,1.77 0,2.89 -3,3.74 -6,7.49 -9,11.2 a 6.3,6.3 0 0 1 -1.27,1.04 z"
       class="cls-1" />
    <path
       id="path28"
       d="m 49.26,2.31 c 0,-1.23 0.49,-1.92 1.53,-2 a 1.67,1.67 0 0 1 2,1.49 c 0.81,3.87 1.6,7.73 2.4,11.6 0.23,1.11 0.5,2.22 0.67,3.35 a 1.62,1.62 0 0 1 -1.3,2 1.56,1.56 0 0 1 -2.07,-1.14 C 51.34,12.41 50.29,7.25 49.26,2.31 Z"
       class="cls-1" />
  </g>
</svg>
